<svg width="706" height="704" viewBox="0 0 706 704" fill="none" xmlns="http://www.w3.org/2000/svg">
<ellipse cx="352.815" cy="352" rx="352.815" ry="352" fill="white"/>
<path d="M624.02 120.505C567.389 130.454 553.614 130.454 510.375 130.454C477.468 173.692 322.498 332.872 268.691 380.702C266.166 372.964 256.392 356.07 246.68 346.264C204.052 402.357 114.543 534.07 81.4326 589.243C122.3 532.475 217.547 422.32 246.68 402.513C258.147 413.622 263.039 420.865 268.691 435.803C317.959 363.075 438.906 210.357 624.02 120.505Z" fill="black"/>
<path d="M84.1113 124.714C117.944 123.027 137.184 121.904 180.537 114C429.78 360.286 512.127 458.317 596.084 589.024C533.045 491.221 252.325 235.663 84.1113 124.714Z" fill="black"/>
</svg>
